<svg fill="none" height="512" viewBox="0 0 512 512" width="512" xmlns="http://www.w3.org/2000/svg"><path d="m0 0h512v512h-512z" fill="#2d226d"/><path clip-rule="evenodd" d="m242.581 173.002.182.057 60.484-.011 37.862 65.148s22.095-46.543 40.791-65.072c18.697-18.529 66.1 7.113 66.1 7.113s-3.588 2.375-8.831 11.376c-4.211 7.227-4.966 15.211-4.966 15.211s-23.426-57.779-50.676-30.773c-27.249 27.005-39.016 67.999-39.016 67.999l56.086 96.498h-42.544c-2.006-3.449-5.715-10.575-10.617-19.992l-.035-.067-.08-.154c-6.432-12.356-14.901-28.624-24.289-45.755-.241-.439-.484-.879-.726-1.319l-.05-.09-.474-.861-.801-1.458s-20.128 43.438-43.357 61.625c-29.788 23.323-77.85 8.451-77.85 8.451l5.315-19.701s26.937 32.107 58.987 17.716c32.049-14.392 55.651-70.353 55.651-70.353-26.457-47.719-42.103-102.141-73.864-90.779-16.344 36.237-45.476 129.369-56.151 162.997l-.193-.061-.049.18h-41.777c-20.35-50.267-44.581-104.324-73.2498-150.587-3.4305-5.536-11.287-12.333-10.3692-14.366 1.7369-3.841 17.7044-2.926 52.089-2.926 0 0 37.551 90.194 47.97 123.465 10.419 33.27 29.936 17.828 34.919 5.675l11.786-31.595s7.38-20.851 24.526-74.856l4.486-14.131z" fill="#20fc8f" fill-rule="evenodd"/></svg>