<svg fill="none" height="1000" viewBox="0 0 3035 1000" width="3035" xmlns="http://www.w3.org/2000/svg"><path d="m0 0h3034.04v1000h-3034.04z" fill="#111313"/><path d="m1116.84 389h67.76l107.8 210.84h-32.2l107.8-210.84h67.76l-114.8 224h-89.32zm448.61 100.24-2.8 13.44-111.72-113.68h76.44l80.36 79.24h-17.08l83.44-79.24h76.44l-113.96 114.52-2.52-13.44 121.52 122.92h-78.12l-93.24-94.36h29.96l-94.64 94.36h-78.12zm215.21-100.52h175.28c15.5 0 29.5 3.08 42 9.24 12.51 6.16 22.31 14.747 29.4 25.76 7.28 10.827 10.92 22.867 10.92 36.12 0 12.693-3.45 24.267-10.36 34.72-6.72 10.267-16.05 18.387-28 24.36-11.94 5.787-25.29 8.68-40.04 8.68h-118.16v85.12h-61.04zm124.6 122.36h69.16l70.56 101.64h-70.84zm46.76-28.56c4.86 0 9.15-1.027 12.88-3.08 3.92-2.24 7-5.227 9.24-8.96 2.24-3.92 3.36-8.213 3.36-12.88 0-4.293-1.3-8.213-3.92-11.76-2.42-3.733-5.78-6.627-10.08-8.68-4.29-2.24-9.05-3.36-14.28-3.36h-107.52v48.72zm202.03-42h-95.76v-51.52h252.56v51.52h-95.76v172.48h-61.04zm286.4 48.72-2.8 13.44-111.72-113.68h76.44l80.36 79.24h-17.08l83.44-79.24h76.44l-113.96 114.52-2.52-13.44 121.52 122.92h-78.12l-93.24-94.36h29.96l-94.64 94.36h-78.12z" fill="#fff"/><g fill="#18ccf1"><path d="m900.178 302.627c2.562-.614 4.614 2.136 3.298 4.417l-112.547 194.934c-.136 1.779.256 3.589 1.178 5.187l11.148 19.307 65.868-114.085c.412-.713 1.099-1.225 1.899-1.417l76.234-18.28c2.562-.614 4.615 2.135 3.298 4.417l-110.995 192.244 53.991 93.514c3.952 6.845-2.208 15.095-9.894 13.252l-60.15-14.424c-2.401-.576-4.461-2.113-5.695-4.252l-14.556-25.211-25.559 44.27c-1.154 1.999-4.04 2-5.195.001l-32.84-56.88c-.536-.929-.536-2.072 0-3l27.29-47.269-5.951-10.309c-2.747-4.756-8.759-5.741-12.858-2.955l-17.523 30.35c-1.155 2-4.041 2-5.196 0l-3.49-6.044c-1.072-.728-2.012-1.713-2.73-2.956l-25.911-44.879c-1.608-2.784-1.608-6.215 0-9l126.44-219.001c1.235-2.138 3.295-3.675 5.697-4.251l60.15-14.424c.72-.172 1.426-.256 2.111-.261z"/><path d="m449.571 307.045c-1.317-2.281.736-5.032 3.298-4.418l75.846 18.189c.8.192 1.487.704 1.898 1.417l129.513 224.324c.536.928.536 2.072 0 3l-32.672 56.591c-1.155 2-4.041 2-5.196 0l-3.49-6.046c-1.071-.728-2.013-1.711-2.73-2.954l-11.142-19.3c-3.465-5.999-12.124-5.999-15.588 0l-6.12 10.598 27.813 48.173c.536.928.536 2.071 0 3l-32.672 56.591c-1.155 2-4.042 2-5.196 0l-26.081-45.173-15.297 26.497c-1.235 2.138-3.294 3.675-5.695 4.251l-59.763 14.332c-7.686 1.843-13.846-6.407-9.894-13.252l54.512-94.419-110.469-191.339c-1.317-2.282.736-5.031 3.298-4.417l75.846 18.188c.8.192 1.487.705 1.898 1.417l65.564 113.561 11.315-19.598c1.608-2.784 1.608-6.215 0-9l-102.839-178.123c-.73-1.264-1.113-2.576-1.208-3.864z"/><path d="m673.758 579.167c1.154-2.001 4.041-2 5.196 0l32.839 56.88c.536.929.536 2.072 0 3l-32.672 56.591c-1.155 2-4.04 2-5.195 0l-3.49-6.045c-1.071-.728-2.012-1.712-2.73-2.955l-25.912-44.881c-1.608-2.784-1.608-6.215 0-9l25.744-44.59c.718-1.244 1.659-2.229 2.731-2.957z"/><path d="m569.121 335.715c-1.317-2.281.736-5.031 3.298-4.417l41.353 9.917c.487.117.936.353 1.308.688l35 31.5 17.456-30.233c3.464-6 12.124-6 15.588 0l17.921 31.04 34.764-31.288c1.115-1.003 2.463-1.711 3.921-2.061l25.908-6.215c.721-.173 1.429-.257 2.116-.262l12.484-2.994c2.562-.614 4.615 2.136 3.298 4.417l-104.585 181.143c-1.155 1.999-4.04 1.999-5.195 0l-3.49-6.045c-1.071-.728-2.012-1.713-2.73-2.955l-92.458-160.145c-.73-1.264-1.115-2.577-1.209-3.865z"/></g></svg>