<svg fill="none" height="1000" viewBox="0 0 1000 1000" width="1000" xmlns="http://www.w3.org/2000/svg"><path d="m0 0h1000v1000h-1000z" fill="#18ccf1"/><g fill="#111313"><path d="m724.678 302.358c2.562-.615 4.614 2.135 3.298 4.417l-112.547 194.933c-.136 1.779.256 3.589 1.178 5.187l11.148 19.307 65.868-114.085c.412-.713 1.099-1.225 1.899-1.417l76.234-18.28c2.562-.614 4.615 2.135 3.298 4.417l-110.995 192.244 53.991 93.514c3.952 6.845-2.208 15.095-9.894 13.252l-60.15-14.424c-2.401-.576-4.461-2.113-5.695-4.252l-14.556-25.211-25.559 44.27c-1.154 1.999-4.04 2-5.195.001l-32.84-56.88c-.536-.928-.536-2.072 0-3l27.29-47.269-5.951-10.308c-2.747-4.757-8.759-5.742-12.858-2.955l-17.523 30.349c-1.155 2-4.041 2-5.196 0l-3.49-6.044c-1.072-.728-2.012-1.713-2.73-2.956l-25.911-44.879c-1.608-2.784-1.608-6.215 0-9l126.44-219.001c1.235-2.138 3.295-3.675 5.697-4.251l60.15-14.424c.72-.172 1.426-.256 2.111-.261z"/><path d="m274.071 306.776c-1.317-2.282.736-5.033 3.298-4.418l75.846 18.188c.8.192 1.487.704 1.898 1.417l129.513 224.324c.536.928.536 2.072 0 3l-32.672 56.591c-1.155 2-4.042 2-5.196 0l-3.49-6.046c-1.071-.728-2.013-1.711-2.73-2.954l-11.143-19.3c-3.464-5.999-12.123-5.999-15.587 0l-6.12 10.598 27.813 48.173c.536.928.536 2.072 0 3l-32.672 56.592c-1.155 1.999-4.042 1.999-5.196 0l-26.081-45.174-15.297 26.497c-1.235 2.138-3.294 3.675-5.695 4.251l-59.763 14.332c-7.686 1.843-13.846-6.407-9.894-13.252l54.512-94.419-110.469-191.339c-1.317-2.282.736-5.031 3.298-4.417l75.846 18.189c.8.191 1.487.704 1.898 1.417l65.564 113.56 11.315-19.598c1.608-2.784 1.608-6.215 0-9l-102.839-178.123c-.73-1.264-1.114-2.576-1.208-3.864z"/><path d="m498.258 578.897c1.154-2 4.041-2 5.196 0l32.839 56.88c.536.929.536 2.072 0 3l-32.672 56.591c-1.155 2-4.041 2-5.195 0l-3.49-6.045c-1.072-.728-2.012-1.712-2.73-2.955l-25.912-44.881c-1.608-2.784-1.608-6.215 0-9l25.744-44.59c.718-1.244 1.659-2.229 2.731-2.957z"/><path d="m393.621 335.445c-1.317-2.281.736-5.031 3.298-4.417l41.353 9.917c.487.117.936.354 1.308.688l35 31.5 17.456-30.232c3.464-6 12.124-6 15.588 0l17.921 31.039 34.764-31.288c1.114-1.003 2.463-1.711 3.921-2.061l25.908-6.215c.721-.173 1.429-.257 2.116-.262l12.484-2.994c2.562-.614 4.615 2.136 3.298 4.417l-104.585 181.143c-1.155 1.999-4.04 1.999-5.195 0l-3.49-6.045c-1.071-.728-2.012-1.712-2.73-2.955l-92.458-160.145c-.73-1.264-1.115-2.577-1.209-3.865z"/></g></svg>