<svg fill="none" height="551" viewBox="0 0 551 551" width="551" xmlns="http://www.w3.org/2000/svg"><g fill="#18ccf1"><path d="m500.142 77.8225c2.562-.6143 4.615 2.1354 3.298 4.417l-112.547 194.9335c-.136 1.779.256 3.589 1.179 5.187l11.147 19.307 65.868-114.085c.412-.713 1.099-1.225 1.9-1.417l76.233-18.28c2.562-.614 4.615 2.135 3.298 4.417l-110.995 192.244 53.991 93.514c3.952 6.845-2.207 15.095-9.893 13.252l-60.151-14.424c-2.401-.576-4.46-2.113-5.695-4.252l-14.556-25.211-25.558 44.27c-1.155 1.999-4.041 2-5.196.001l-32.84-56.88c-.535-.929-.535-2.072 0-3l27.29-47.269-5.951-10.308c-2.746-4.757-8.758-5.742-12.858-2.956l-17.523 30.35c-1.154 2-4.041 2-5.196 0l-3.49-6.044c-1.071-.728-2.012-1.713-2.73-2.956l-25.911-44.879c-1.607-2.784-1.607-6.215 0-9l126.441-219.0008c1.235-2.1386 3.295-3.6752 5.696-4.251l60.15-14.4238c.72-.1726 1.426-.2567 2.112-.2618z"/><path d="m49.5356 82.2405c-1.3173-2.2817.7358-5.0324 3.2978-4.418l75.8456 18.1885c.8.1919 1.487.7043 1.899 1.417l129.512 224.324c.536.928.536 2.072 0 3l-32.672 56.591c-1.154 2-4.041 2-5.196 0l-3.49-6.046c-1.071-.728-2.012-1.711-2.73-2.954l-11.142-19.3c-3.464-5.999-12.124-5.999-15.588 0l-6.119 10.598 27.812 48.173c.536.928.536 2.072 0 3l-32.672 56.592c-1.154 1.999-4.041 1.999-5.196 0l-26.081-45.174-15.297 26.497c-1.235 2.138-3.294 3.675-5.695 4.251l-59.7628 14.332c-7.686 1.843-13.8455-6.407-9.8936-13.252l54.5114-94.419-110.468411-191.339c-1.317058-2.282.735991-5.031 3.297851-4.417l75.84566 18.188c.8005.192 1.4869.705 1.8985 1.417l65.5634 113.561 11.315-19.598c1.608-2.784 1.608-6.215 0-9l-102.8384-178.1227c-.7299-1.2642-1.1138-2.5766-1.208-3.8642z"/><path d="m273.722 354.362c1.155-2 4.042-2 5.196 0l32.839 56.88c.536.929.536 2.072 0 3l-32.672 56.591c-1.154 2-4.04 2-5.195 0l-3.49-6.045c-1.071-.728-2.012-1.712-2.73-2.955l-25.912-44.881c-1.607-2.784-1.607-6.215 0-9l25.744-44.59c.718-1.244 1.659-2.229 2.731-2.957z"/><path d="m169.085 110.91c-1.317-2.281.736-5.031 3.298-4.417l41.354 9.917c.486.117.936.354 1.307.688l35 31.5 17.456-30.233c3.465-6 12.124-5.999 15.588 0l17.921 31.04 34.764-31.288c1.115-1.003 2.463-1.711 3.922-2.061l25.907-6.215c.721-.173 1.429-.257 2.116-.262l12.485-2.994c2.561-.614 4.614 2.136 3.297 4.417l-104.585 181.143c-1.154 1.999-4.04 1.999-5.195 0l-3.49-6.045c-1.071-.728-2.012-1.713-2.73-2.955l-92.458-160.145c-.73-1.264-1.115-2.577-1.209-3.865z"/></g></svg>